<svg width="38" height="39" viewBox="0 0 38 39" fill="none" xmlns="http://www.w3.org/2000/svg">
<path d="M34.5753 15.8472H32.0809V8.06439C32.0809 6.98317 31.2014 6.10503 30.1215 6.10503H22.2715V3.60925H30.1215C32.5781 3.60925 34.5767 5.60783 34.5767 8.06439V15.8486L34.5753 15.8472Z" fill="#0052FF"/>
<path d="M5.49437 15.8472H3V8.06439C3 5.60783 4.99858 3.60925 7.45514 3.60925H15.3052V6.10363H7.45514C6.37392 6.10363 5.49577 6.98317 5.49577 8.06299V15.8472H5.49437Z" fill="#0052FF"/>
<path d="M30.1215 35.1846H22.2715V32.6902H30.1215C31.2028 32.6902 32.0809 31.8107 32.0809 30.7309V23.5601H34.5753V30.7309C34.5753 33.1874 32.5767 35.186 30.1201 35.186L30.1215 35.1846Z" fill="#0052FF"/>
<path d="M15.3052 35.1846H7.45514C4.99858 35.1846 3 33.186 3 30.7295V23.5587H5.49437V30.7295C5.49437 31.8107 6.37392 32.6888 7.45374 32.6888H15.3038V35.1832L15.3052 35.1846Z" fill="#0052FF"/>
<path d="M23.9413 12.2731H13.636C12.5469 12.2731 11.6641 13.156 11.6641 14.245V24.5503C11.6641 25.6393 12.5469 26.5222 13.636 26.5222H23.9413C25.0303 26.5222 25.9132 25.6393 25.9132 24.5503V14.245C25.9132 13.156 25.0303 12.2731 23.9413 12.2731Z" fill="#0052FF"/>
</svg>
