<svg width="14" height="14" viewBox="0 0 14 14" fill="none" xmlns="http://www.w3.org/2000/svg">
<path d="M12.7143 4.40179L5.7143 11.4018C5.65334 11.463 5.58089 11.5115 5.50112 11.5446C5.42135 11.5778 5.33583 11.5948 5.24946 11.5948C5.16309 11.5948 5.07757 11.5778 4.9978 11.5446C4.91803 11.5115 4.84558 11.463 4.78462 11.4018L1.72212 8.33929C1.66107 8.27825 1.61265 8.20578 1.57961 8.12602C1.54658 8.04626 1.52957 7.96078 1.52957 7.87445C1.52957 7.78812 1.54658 7.70264 1.57961 7.62288C1.61265 7.54312 1.66107 7.47065 1.72212 7.40961C1.78316 7.34856 1.85563 7.30014 1.93539 7.2671C2.01515 7.23407 2.10063 7.21706 2.18696 7.21706C2.27329 7.21706 2.35877 7.23407 2.43853 7.2671C2.51829 7.30014 2.59076 7.34856 2.6518 7.40961L5.25001 10.0078L11.7857 3.4732C11.909 3.34992 12.0762 3.28065 12.2506 3.28065C12.4249 3.28065 12.5921 3.34992 12.7154 3.4732C12.8387 3.59648 12.9079 3.76369 12.9079 3.93804C12.9079 4.11239 12.8387 4.2796 12.7154 4.40289L12.7143 4.40179Z" fill="white"/>
</svg>
