<svg width="14" height="13" viewBox="0 0 14 13" fill="none" xmlns="http://www.w3.org/2000/svg">
<path d="M12.5 3.62494H10.3075C10.3319 3.60431 10.3569 3.58431 10.3806 3.56244C10.5704 3.3938 10.7234 3.18781 10.83 2.95735C10.9366 2.72688 10.9944 2.47691 11 2.22306C11.0082 1.94536 10.9596 1.66891 10.8571 1.41068C10.7546 1.15245 10.6004 0.917898 10.404 0.721416C10.2075 0.524935 9.97304 0.370673 9.71484 0.268101C9.45664 0.165528 9.18021 0.116811 8.9025 0.124938C8.64854 0.130408 8.39845 0.188241 8.16788 0.294817C7.9373 0.401394 7.73121 0.554418 7.5625 0.744313C7.32905 1.01487 7.13927 1.32021 7 1.64931C6.86073 1.32021 6.67095 1.01487 6.4375 0.744313C6.26879 0.554418 6.0627 0.401394 5.83212 0.294817C5.60155 0.188241 5.35146 0.130408 5.0975 0.124938C4.81979 0.116811 4.54336 0.165528 4.28516 0.268101C4.02696 0.370673 3.79245 0.524935 3.59603 0.721416C3.39961 0.917898 3.24542 1.15245 3.14292 1.41068C3.04043 1.66891 2.99179 1.94536 3 2.22306C3.00556 2.47691 3.06343 2.72688 3.17 2.95735C3.27658 3.18781 3.42956 3.3938 3.61938 3.56244C3.64313 3.58306 3.66813 3.60306 3.6925 3.62494H1.5C1.23478 3.62494 0.98043 3.7303 0.792893 3.91783C0.605357 4.10537 0.5 4.35972 0.5 4.62494V6.62494C0.5 6.89015 0.605357 7.14451 0.792893 7.33204C0.98043 7.51958 1.23478 7.62494 1.5 7.62494V11.6249C1.5 11.8902 1.60536 12.1445 1.79289 12.332C1.98043 12.5196 2.23478 12.6249 2.5 12.6249H6.25C6.3163 12.6249 6.37989 12.5986 6.42678 12.5517C6.47366 12.5048 6.5 12.4412 6.5 12.3749V6.62494H1.5V4.62494H6.5V6.62494H7.5V4.62494H12.5V6.62494H7.5V12.3749C7.5 12.4412 7.52634 12.5048 7.57322 12.5517C7.62011 12.5986 7.6837 12.6249 7.75 12.6249H11.5C11.7652 12.6249 12.0196 12.5196 12.2071 12.332C12.3946 12.1445 12.5 11.8902 12.5 11.6249V7.62494C12.7652 7.62494 13.0196 7.51958 13.2071 7.33204C13.3946 7.14451 13.5 6.89015 13.5 6.62494V4.62494C13.5 4.35972 13.3946 4.10537 13.2071 3.91783C13.0196 3.7303 12.7652 3.62494 12.5 3.62494ZM4.28188 2.81244C4.19445 2.73327 4.12434 2.63688 4.07594 2.52933C4.02754 2.42177 4.0019 2.30537 4.00063 2.18744C3.99746 2.04925 4.02191 1.91182 4.07254 1.78321C4.12317 1.65459 4.19896 1.53737 4.29547 1.43842C4.39198 1.33947 4.50726 1.26077 4.63457 1.20694C4.76188 1.15311 4.89865 1.12523 5.03687 1.12494H5.0675C5.18544 1.12621 5.30184 1.15185 5.40939 1.20025C5.51695 1.24865 5.61333 1.31876 5.6925 1.40619C6.21688 1.99869 6.40188 2.98119 6.46688 3.58869C5.85688 3.52431 4.875 3.33931 4.28188 2.81244ZM9.71937 2.81244C9.12625 3.33744 8.14187 3.52244 7.53187 3.58744C7.60625 2.93056 7.8125 1.96869 8.3125 1.40681C8.39167 1.31939 8.48805 1.24928 8.59561 1.20088C8.70316 1.15248 8.81956 1.12683 8.9375 1.12556H8.96813C9.10636 1.12643 9.24302 1.15487 9.37012 1.20923C9.49721 1.26359 9.61218 1.34277 9.70828 1.44214C9.80439 1.5415 9.87969 1.65904 9.92978 1.78788C9.97987 1.91672 10.0037 2.05426 10 2.19244C9.99796 2.30957 9.9719 2.42504 9.92341 2.53169C9.87492 2.63834 9.80505 2.7339 9.71813 2.81244H9.71937Z" fill="white"/>
</svg>
