<svg width="10" height="10" viewBox="0 0 10 10" fill="none" xmlns="http://www.w3.org/2000/svg">
<path d="M2.91667 4.70827V3.0416C2.91667 2.48907 3.13616 1.95917 3.52686 1.56847C3.91756 1.17776 4.44747 0.958271 5 0.958271C5.55253 0.958271 6.08244 1.17776 6.47314 1.56847C6.86384 1.95917 7.08333 2.48907 7.08333 3.0416V4.70827M2.08333 4.70827H7.91667C8.3769 4.70827 8.75 5.08137 8.75 5.5416V8.45827C8.75 8.91851 8.3769 9.2916 7.91667 9.2916H2.08333C1.6231 9.2916 1.25 8.91851 1.25 8.45827V5.5416C1.25 5.08137 1.6231 4.70827 2.08333 4.70827Z" stroke="#9CA3AF" stroke-linecap="round" stroke-linejoin="round"/>
</svg>
