<svg width="32" height="32" viewBox="0 0 32 32" fill="none" xmlns="http://www.w3.org/2000/svg">
<path d="M22.5 5H27V9.5" stroke="#0052FF" stroke-width="1.5" stroke-linecap="round" stroke-linejoin="round"/>
<path d="M22.5 27H27V22.5" stroke="#0052FF" stroke-width="1.5" stroke-linecap="round" stroke-linejoin="round"/>
<path d="M9.5 27H5V22.5" stroke="#0052FF" stroke-width="1.5" stroke-linecap="round" stroke-linejoin="round"/>
<path d="M9.5 5H5V9.5" stroke="#0052FF" stroke-width="1.5" stroke-linecap="round" stroke-linejoin="round"/>
<path d="M14.2031 21.9375C16.1965 21.9375 17.8125 19.1673 17.8125 15.75C17.8125 12.3327 16.1965 9.5625 14.2031 9.5625C12.2097 9.5625 10.5938 12.3327 10.5938 15.75C10.5938 19.1673 12.2097 21.9375 14.2031 21.9375Z" stroke="#0052FF" stroke-width="1.5" stroke-linecap="round" stroke-linejoin="round"/>
<path d="M14.2031 9.5625H17.2969C19.2904 9.5625 20.9062 12.334 20.9062 15.75C20.9062 19.166 19.2904 21.9375 17.2969 21.9375H14.2031" stroke="#0052FF" stroke-width="1.5" stroke-linecap="round" stroke-linejoin="round"/>
<path d="M16.8934 11.625H19.9872" stroke="#0052FF" stroke-width="1.5" stroke-linecap="round" stroke-linejoin="round"/>
<path d="M17.8125 15.75H20.9062" stroke="#0052FF" stroke-width="1.5" stroke-linecap="round" stroke-linejoin="round"/>
<path d="M16.8934 19.875H19.9872" stroke="#0052FF" stroke-width="1.5" stroke-linecap="round" stroke-linejoin="round"/>
</svg>
